ffmpeg started on 2025-04-30 at 18:04:32
Report written to "D:\Convert\FFMetrics\reports\ssim_report-6.txt"
Log level: 32
Command line:
ffmpeg -hide_banner -nostdin -i "G:\\\xc0\xed\xe8\xec\xe5\\\xce\xed\xe3\xee\xe8\xed\xe3\xe8\\!_35_\xcb\xe5\xf2\xee_2024\\JamClub\\\xcc\xe5\xf7 \xe8 \xe6\xe5\xe7\xeb \xc2\xe8\xf1\xf2\xee\xf0\xe8\xe8\\JamClub_Tsue_to_Tsurugi_no_Wistoria_04_1080p_HEVC.mkv" -i "G:\\\xc0\xed\xe8\xec\xe5\\\xce\xed\xe3\xee\xe8\xed\xe3\xe8\\!_35_\xcb\xe5\xf2\xee_2024\\JamClub\\\xcc\xe5\xf7 \xe8 \xe6\xe5\xe7\xeb \xc2\xe8\xf1\xf2\xee\xf0\xe8\xe8\\JamClub_Tsue_to_Tsurugi_no_Wistoria_04_1080p.mp4" -lavfi "[0:v]settb=AVTB,setpts=PTS-STARTPTS,format=pix_fmts=yuv420p10,fps=24000/1001,scale=1920:1080:flags=bicubic[main];[1:v]settb=AVTB,setpts=PTS-STARTPTS,format=pix_fmts=yuv420p,fps=24000/1001,scale=1920:1080:flags=bicubic[ref];[main][ref]ssim=eof_action=endall:stats_file='D\\:/Convert/FFMetrics/logs/ssim_logfile-6.txt'" -f null -
Input #0, matroska,webm, from 'G:\Аниме\Онгоинги\!_35_Лето_2024\JamClub\Меч и жезл Вистории\JamClub_Tsue_to_Tsurugi_no_Wistoria_04_1080p_HEVC.mkv':
  Metadata:
    COMPATIBLE_BRANDS: isomiso2avc1mp41
    MAJOR_BRAND     : isom
    MINOR_VERSION   : 512
    ENCODER         : Lavf61.7.100
  Duration: 00:24:08.36, start: -0.001000, bitrate: 1331 kb/s
  Stream #0:0: Video: hevc (Main 10), yuv420p10le(tv, bt709, progressive), 1920x1080 [SAR 1:1 DAR 16:9], 23.98 fps, 23.98 tbr, 1k tbn (default)
      Metadata:
        HANDLER_NAME    : VideoHandler
        VENDOR_ID       : [0][0][0][0]
        ENCODER         : Lavc61.19.100 libx265
        BPS             : 1133699
        DURATION        : 00:24:08.279708333
        NUMBER_OF_FRAMES: 34724
        NUMBER_OF_BYTES : 205239128
        _STATISTICS_WRITING_APP: mkvpropedit v66.0.0 ('Josie') 64-bit
        _STATISTICS_WRITING_DATE_UTC: 2025-04-29 11:52:38
        _STATISTICS_TAGS: BPS DURATION NUMBER_OF_FRAMES NUMBER_OF_BYTES
  Stream #0:1(eng): Audio: aac (LC), 48000 Hz, stereo, fltp (default)
      Metadata:
        HANDLER_NAME    : SoundHandler
        VENDOR_ID       : [0][0][0][0]
        ENCODER         : Lavc61.19.100 aac
        BPS             : 193614
        DURATION        : 00:24:08.323000000
        NUMBER_OF_FRAMES: 67891
        NUMBER_OF_BYTES : 35051981
        _STATISTICS_WRITING_APP: mkvpropedit v66.0.0 ('Josie') 64-bit
        _STATISTICS_WRITING_DATE_UTC: 2025-04-29 11:52:38
        _STATISTICS_TAGS: BPS DURATION NUMBER_OF_FRAMES NUMBER_OF_BYTES
Input #1, mov,mp4,m4a,3gp,3g2,mj2, from 'G:\Аниме\Онгоинги\!_35_Лето_2024\JamClub\Меч и жезл Вистории\JamClub_Tsue_to_Tsurugi_no_Wistoria_04_1080p.mp4':
  Metadata:
    major_brand     : isom
    minor_version   : 512
    compatible_brands: isomiso2avc1mp41
    encoder         : Lavf60.16.100
  Duration: 00:24:08.34, start: 0.000000, bitrate: 4075 kb/s
  Stream #1:0[0x1](und): Video: h264 (High) (avc1 / 0x31637661), yuv420p(progressive), 1920x1080 [SAR 1:1 DAR 16:9], 3877 kb/s, 23.98 fps, 23.98 tbr, 90k tbn (default)
      Metadata:
        handler_name    : VideoHandler
        vendor_id       : [0][0][0][0]
  Stream #1:1[0x2](eng): Audio: aac (LC) (mp4a / 0x6134706D), 48000 Hz, stereo, fltp, 191 kb/s (default)
      Metadata:
        handler_name    : SoundHandler
        vendor_id       : [0][0][0][0]
Stream mapping:
  Stream #0:0 (hevc) -> settb:default
  Stream #1:0 (h264) -> settb:default
  ssim:default -> Stream #0:0 (wrapped_avframe)
  Stream #0:1 -> #0:1 (aac (native) -> pcm_s16le (native))
Output #0, null, to 'pipe:':
  Metadata:
    COMPATIBLE_BRANDS: isomiso2avc1mp41
    MAJOR_BRAND     : isom
    MINOR_VERSION   : 512
    encoder         : Lavf61.7.100
  Stream #0:0: Video: wrapped_avframe, yuv420p10le(tv, bt709, progressive), 1920x1080 [SAR 1:1 DAR 16:9], q=2-31, 200 kb/s, 23.98 fps, 23.98 tbn
      Metadata:
        encoder         : Lavc61.19.100 wrapped_avframe
  Stream #0:1(eng): Audio: pcm_s16le, 48000 Hz, stereo, s16, 1536 kb/s (default)
      Metadata:
        HANDLER_NAME    : SoundHandler
        VENDOR_ID       : [0][0][0][0]
        _STATISTICS_TAGS: BPS DURATION NUMBER_OF_FRAMES NUMBER_OF_BYTES
        BPS             : 193614
        DURATION        : 00:24:08.323000000
        NUMBER_OF_FRAMES: 67891
        NUMBER_OF_BYTES : 35051981
        _STATISTICS_WRITING_APP: mkvpropedit v66.0.0 ('Josie') 64-bit
        _STATISTICS_WRITING_DATE_UTC: 2025-04-29 11:52:38
        encoder         : Lavc61.19.100 pcm_s16le
frame=  100 fps=0.0 q=-0.0 size=N/A time=00:00:04.17 bitrate=N/A speed=8.13x    frame=  236 fps=231 q=-0.0 size=N/A time=00:00:09.84 bitrate=N/A speed=9.64x    frame=  400 fps=259 q=-0.0 size=N/A time=00:00:16.68 bitrate=N/A speed=10.8x    frame=  592 fps=289 q=-0.0 size=N/A time=00:00:24.69 bitrate=N/A speed=  12x    frame=  804 fps=313 q=-0.0 size=N/A time=00:00:33.53 bitrate=N/A speed=  13x    frame= 1011 fps=328 q=-0.0 size=N/A time=00:00:42.16 bitrate=N/A speed=13.7x    frame= 1199 fps=333 q=-0.0 size=N/A time=00:00:50.00 bitrate=N/A speed=13.9x    frame= 1402 fps=341 q=-0.0 size=N/A time=00:00:58.47 bitrate=N/A speed=14.2x    frame= 1617 fps=349 q=-0.0 size=N/A time=00:01:07.44 bitrate=N/A speed=14.6x    frame= 1861 fps=361 q=-0.0 size=N/A time=00:01:17.61 bitrate=N/A speed=15.1x    frame= 2069 fps=365 q=-0.0 size=N/A time=00:01:26.29 bitrate=N/A speed=15.2x    frame= 2306 fps=373 q=-0.0 size=N/A time=00:01:36.17 bitrate=N/A speed=15.5x    frame= 2543 fps=380 q=-0.0 size=N/A time=00:01:46.06 bitrate=N/A speed=15.8x    frame= 2758 fps=382 q=-0.0 size=N/A time=00:01:55.03 bitrate=N/A speed=15.9x    frame= 2957 fps=382 q=-0.0 size=N/A time=00:02:03.33 bitrate=N/A speed=15.9x    frame= 3149 fps=382 q=-0.0 size=N/A time=00:02:11.33 bitrate=N/A speed=15.9x    frame= 3318 fps=379 q=-0.0 size=N/A time=00:02:18.38 bitrate=N/A speed=15.8x    frame= 3477 fps=375 q=-0.0 size=N/A time=00:02:25.01 bitrate=N/A speed=15.6x    frame= 3638 fps=372 q=-0.0 size=N/A time=00:02:31.73 bitrate=N/A speed=15.5x    frame= 3859 fps=374 q=-0.0 size=N/A time=00:02:40.95 bitrate=N/A speed=15.6x    frame= 4051 fps=375 q=-0.0 size=N/A time=00:02:48.96 bitrate=N/A speed=15.6x    frame= 4279 fps=378 q=-0.0 size=N/A time=00:02:58.46 bitrate=N/A speed=15.7x    frame= 4505 fps=380 q=-0.0 size=N/A time=00:03:07.89 bitrate=N/A speed=15.9x    frame= 4752 fps=384 q=-0.0 size=N/A time=00:03:18.19 bitrate=N/A speed=  16x    frame= 5016 fps=389 q=-0.0 size=N/A time=00:03:29.20 bitrate=N/A speed=16.2x    frame= 5269 fps=393 q=-0.0 size=N/A time=00:03:39.76 bitrate=N/A speed=16.4x    frame= 5469 fps=393 q=-0.0 size=N/A time=00:03:48.10 bitrate=N/A speed=16.4x    frame= 5686 fps=394 q=-0.0 size=N/A time=00:03:57.15 bitrate=N/A speed=16.4x    frame= 5890 fps=394 q=-0.0 size=N/A time=00:04:05.66 bitrate=N/A speed=16.4x    frame= 6117 fps=395 q=-0.0 size=N/A time=00:04:15.12 bitrate=N/A speed=16.5x    frame= 6352 fps=397 q=-0.0 size=N/A time=00:04:24.93 bitrate=N/A speed=16.6x    frame= 6585 fps=399 q=-0.0 size=N/A time=00:04:34.64 bitrate=N/A speed=16.6x    frame= 6814 fps=400 q=-0.0 size=N/A time=00:04:44.20 bitrate=N/A speed=16.7x    frame= 7054 fps=402 q=-0.0 size=N/A time=00:04:54.21 bitrate=N/A speed=16.8x    frame= 7279 fps=403 q=-0.0 size=N/A time=00:05:03.59 bitrate=N/A speed=16.8x    frame= 7490 fps=403 q=-0.0 size=N/A time=00:05:12.39 bitrate=N/A speed=16.8x    frame= 7665 fps=402 q=-0.0 size=N/A time=00:05:19.69 bitrate=N/A speed=16.8x    frame= 7835 fps=400 q=-0.0 size=N/A time=00:05:26.78 bitrate=N/A speed=16.7x    frame= 8029 fps=399 q=-0.0 size=N/A time=00:05:34.87 bitrate=N/A speed=16.6x    frame= 8179 fps=396 q=-0.0 size=N/A time=00:05:41.13 bitrate=N/A speed=16.5x    frame= 8346 fps=395 q=-0.0 size=N/A time=00:05:48.09 bitrate=N/A speed=16.5x    frame= 8545 fps=394 q=-0.0 size=N/A time=00:05:56.39 bitrate=N/A speed=16.4x    frame= 8735 fps=394 q=-0.0 size=N/A time=00:06:04.32 bitrate=N/A speed=16.4x    frame= 8955 fps=394 q=-0.0 size=N/A time=00:06:13.49 bitrate=N/A speed=16.5x    frame= 9159 fps=395 q=-0.0 size=N/A time=00:06:22.00 bitrate=N/A speed=16.5x    frame= 9384 fps=395 q=-0.0 size=N/A time=00:06:31.39 bitrate=N/A speed=16.5x    frame= 9646 fps=398 q=-0.0 size=N/A time=00:06:42.31 bitrate=N/A speed=16.6x    frame= 9878 fps=399 q=-0.0 size=N/A time=00:06:51.99 bitrate=N/A speed=16.6x    frame=10130 fps=401 q=-0.0 size=N/A time=00:07:02.50 bitrate=N/A speed=16.7x    frame=10373 fps=402 q=-0.0 size=N/A time=00:07:12.64 bitrate=N/A speed=16.8x    frame=10623 fps=404 q=-0.0 size=N/A time=00:07:23.06 bitrate=N/A speed=16.8x    frame=10801 fps=403 q=-0.0 size=N/A time=00:07:30.49 bitrate=N/A speed=16.8x    frame=10946 fps=400 q=-0.0 size=N/A time=00:07:36.53 bitrate=N/A speed=16.7x    frame=11094 fps=398 q=-0.0 size=N/A time=00:07:42.71 bitrate=N/A speed=16.6x    frame=11243 fps=396 q=-0.0 size=N/A time=00:07:48.92 bitrate=N/A speed=16.5x    frame=11510 fps=399 q=-0.0 size=N/A time=00:08:00.06 bitrate=N/A speed=16.6x    frame=11762 fps=400 q=-0.0 size=N/A time=00:08:10.57 bitrate=N/A speed=16.7x    frame=11993 fps=401 q=-0.0 size=N/A time=00:08:20.20 bitrate=N/A speed=16.7x    frame=12245 fps=402 q=-0.0 size=N/A time=00:08:30.71 bitrate=N/A speed=16.8x    frame=12484 fps=403 q=-0.0 size=N/A time=00:08:40.68 bitrate=N/A speed=16.8x    frame=12730 fps=405 q=-0.0 size=N/A time=00:08:50.94 bitrate=N/A speed=16.9x    frame=12945 fps=405 q=-0.0 size=N/A time=00:08:59.91 bitrate=N/A speed=16.9x    frame=13131 fps=404 q=-0.0 size=N/A time=00:09:07.67 bitrate=N/A speed=16.9x    frame=13325 fps=404 q=-0.0 size=N/A time=00:09:15.76 bitrate=N/A speed=16.8x    frame=13597 fps=405 q=-0.0 size=N/A time=00:09:27.10 bitrate=N/A speed=16.9x    frame=13849 fps=407 q=-0.0 size=N/A time=00:09:37.61 bitrate=N/A speed=  17x    frame=14103 fps=408 q=-0.0 size=N/A time=00:09:48.21 bitrate=N/A speed=  17x    frame=14366 fps=410 q=-0.0 size=N/A time=00:09:59.18 bitrate=N/A speed=17.1x    frame=14654 fps=412 q=-0.0 size=N/A time=00:10:11.19 bitrate=N/A speed=17.2x    frame=14895 fps=413 q=-0.0 size=N/A time=00:10:21.24 bitrate=N/A speed=17.2x    frame=15151 fps=414 q=-0.0 size=N/A time=00:10:31.92 bitrate=N/A speed=17.3x    frame=15428 fps=415 q=-0.0 size=N/A time=00:10:43.47 bitrate=N/A speed=17.3x    frame=15652 fps=416 q=-0.0 size=N/A time=00:10:52.81 bitrate=N/A speed=17.3x    frame=15914 fps=417 q=-0.0 size=N/A time=00:11:03.74 bitrate=N/A speed=17.4x    frame=16181 fps=418 q=-0.0 size=N/A time=00:11:14.88 bitrate=N/A speed=17.4x    frame=16445 fps=420 q=-0.0 size=N/A time=00:11:25.89 bitrate=N/A speed=17.5x    frame=16735 fps=421 q=-0.0 size=N/A time=00:11:37.98 bitrate=N/A speed=17.6x    frame=17012 fps=423 q=-0.0 size=N/A time=00:11:49.54 bitrate=N/A speed=17.6x    frame=17275 fps=424 q=-0.0 size=N/A time=00:12:00.51 bitrate=N/A speed=17.7x    frame=17540 fps=425 q=-0.0 size=N/A time=00:12:11.56 bitrate=N/A speed=17.7x    frame=17809 fps=426 q=-0.0 size=N/A time=00:12:22.78 bitrate=N/A speed=17.8x    frame=18053 fps=427 q=-0.0 size=N/A time=00:12:32.96 bitrate=N/A speed=17.8x    frame=18298 fps=427 q=-0.0 size=N/A time=00:12:43.17 bitrate=N/A speed=17.8x    frame=18563 fps=428 q=-0.0 size=N/A time=00:12:54.23 bitrate=N/A speed=17.9x    frame=18825 fps=429 q=-0.0 size=N/A time=00:13:05.15 bitrate=N/A speed=17.9x    frame=19075 fps=430 q=-0.0 size=N/A time=00:13:15.58 bitrate=N/A speed=17.9x    frame=19333 fps=431 q=-0.0 size=N/A time=00:13:26.34 bitrate=N/A speed=  18x    frame=19504 fps=430 q=-0.0 size=N/A time=00:13:33.47 bitrate=N/A speed=17.9x    frame=19689 fps=429 q=-0.0 size=N/A time=00:13:41.19 bitrate=N/A speed=17.9x    frame=19920 fps=429 q=-0.0 size=N/A time=00:13:50.83 bitrate=N/A speed=17.9x    frame=20179 fps=430 q=-0.0 size=N/A time=00:14:01.63 bitrate=N/A speed=17.9x    frame=20431 fps=431 q=-0.0 size=N/A time=00:14:12.14 bitrate=N/A speed=  18x    frame=20706 fps=432 q=-0.0 size=N/A time=00:14:23.61 bitrate=N/A speed=  18x    frame=20976 fps=433 q=-0.0 size=N/A time=00:14:34.87 bitrate=N/A speed=  18x    frame=21248 fps=434 q=-0.0 size=N/A time=00:14:46.21 bitrate=N/A speed=18.1x    frame=21499 fps=434 q=-0.0 size=N/A time=00:14:56.68 bitrate=N/A speed=18.1x    frame=21749 fps=435 q=-0.0 size=N/A time=00:15:07.11 bitrate=N/A speed=18.1x    frame=22018 fps=436 q=-0.0 size=N/A time=00:15:18.33 bitrate=N/A speed=18.2x    frame=22266 fps=436 q=-0.0 size=N/A time=00:15:28.67 bitrate=N/A speed=18.2x    frame=22481 fps=436 q=-0.0 size=N/A time=00:15:37.64 bitrate=N/A speed=18.2x    frame=22721 fps=436 q=-0.0 size=N/A time=00:15:47.65 bitrate=N/A speed=18.2x    frame=22960 fps=436 q=-0.0 size=N/A time=00:15:57.62 bitrate=N/A speed=18.2x    frame=23224 fps=437 q=-0.0 size=N/A time=00:16:08.63 bitrate=N/A speed=18.2x    frame=23478 fps=438 q=-0.0 size=N/A time=00:16:19.22 bitrate=N/A speed=18.3x    frame=23730 fps=438 q=-0.0 size=N/A time=00:16:29.73 bitrate=N/A speed=18.3x    frame=23984 fps=439 q=-0.0 size=N/A time=00:16:40.33 bitrate=N/A speed=18.3x    frame=24272 fps=440 q=-0.0 size=N/A time=00:16:52.34 bitrate=N/A speed=18.3x    frame=24518 fps=440 q=-0.0 size=N/A time=00:17:02.60 bitrate=N/A speed=18.4x    frame=24787 fps=441 q=-0.0 size=N/A time=00:17:13.82 bitrate=N/A speed=18.4x    frame=25033 fps=441 q=-0.0 size=N/A time=00:17:24.08 bitrate=N/A speed=18.4x    frame=25298 fps=442 q=-0.0 size=N/A time=00:17:35.13 bitrate=N/A speed=18.4x    frame=25526 fps=442 q=-0.0 size=N/A time=00:17:44.64 bitrate=N/A speed=18.4x    frame=25785 fps=442 q=-0.0 size=N/A time=00:17:55.44 bitrate=N/A speed=18.4x    frame=26017 fps=442 q=-0.0 size=N/A time=00:18:05.12 bitrate=N/A speed=18.5x    frame=26261 fps=443 q=-0.0 size=N/A time=00:18:15.30 bitrate=N/A speed=18.5x    frame=26525 fps=443 q=-0.0 size=N/A time=00:18:26.31 bitrate=N/A speed=18.5x    frame=26793 fps=444 q=-0.0 size=N/A time=00:18:37.49 bitrate=N/A speed=18.5x    frame=27039 fps=444 q=-0.0 size=N/A time=00:18:47.75 bitrate=N/A speed=18.5x    frame=27296 fps=445 q=-0.0 size=N/A time=00:18:58.47 bitrate=N/A speed=18.5x    frame=27548 fps=445 q=-0.0 size=N/A time=00:19:08.98 bitrate=N/A speed=18.6x    frame=27759 fps=445 q=-0.0 size=N/A time=00:19:17.78 bitrate=N/A speed=18.5x    frame=28025 fps=445 q=-0.0 size=N/A time=00:19:28.87 bitrate=N/A speed=18.6x    frame=28277 fps=446 q=-0.0 size=N/A time=00:19:39.38 bitrate=N/A speed=18.6x    frame=28526 fps=446 q=-0.0 size=N/A time=00:19:49.77 bitrate=N/A speed=18.6x    frame=28754 fps=446 q=-0.0 size=N/A time=00:19:59.28 bitrate=N/A speed=18.6x    frame=29040 fps=447 q=-0.0 size=N/A time=00:20:11.21 bitrate=N/A speed=18.6x    frame=29303 fps=447 q=-0.0 size=N/A time=00:20:22.17 bitrate=N/A speed=18.7x    frame=29535 fps=447 q=-0.0 size=N/A time=00:20:31.85 bitrate=N/A speed=18.7x    frame=29763 fps=447 q=-0.0 size=N/A time=00:20:41.36 bitrate=N/A speed=18.7x    frame=29991 fps=447 q=-0.0 size=N/A time=00:20:50.87 bitrate=N/A speed=18.7x    frame=30218 fps=447 q=-0.0 size=N/A time=00:21:00.34 bitrate=N/A speed=18.7x    frame=30462 fps=447 q=-0.0 size=N/A time=00:21:10.51 bitrate=N/A speed=18.7x    frame=30714 fps=448 q=-0.0 size=N/A time=00:21:21.02 bitrate=N/A speed=18.7x    frame=30977 fps=448 q=-0.0 size=N/A time=00:21:31.99 bitrate=N/A speed=18.7x    frame=31240 fps=449 q=-0.0 size=N/A time=00:21:42.96 bitrate=N/A speed=18.7x    frame=31504 fps=449 q=-0.0 size=N/A time=00:21:53.97 bitrate=N/A speed=18.7x    frame=31742 fps=449 q=-0.0 size=N/A time=00:22:03.90 bitrate=N/A speed=18.7x    frame=31945 fps=449 q=-0.0 size=N/A time=00:22:12.37 bitrate=N/A speed=18.7x    frame=32129 fps=448 q=-0.0 size=N/A time=00:22:20.04 bitrate=N/A speed=18.7x    frame=32371 fps=448 q=-0.0 size=N/A time=00:22:30.14 bitrate=N/A speed=18.7x    frame=32617 fps=449 q=-0.0 size=N/A time=00:22:40.40 bitrate=N/A speed=18.7x    frame=32863 fps=449 q=-0.0 size=N/A time=00:22:50.66 bitrate=N/A speed=18.7x    frame=33114 fps=449 q=-0.0 size=N/A time=00:23:01.12 bitrate=N/A speed=18.7x    frame=33342 fps=449 q=-0.0 size=N/A time=00:23:10.63 bitrate=N/A speed=18.7x    frame=33559 fps=449 q=-0.0 size=N/A time=00:23:19.68 bitrate=N/A speed=18.7x    frame=33802 fps=449 q=-0.0 size=N/A time=00:23:29.82 bitrate=N/A speed=18.7x    frame=34002 fps=448 q=-0.0 size=N/A time=00:23:38.16 bitrate=N/A speed=18.7x    frame=34186 fps=448 q=-0.0 size=N/A time=00:23:45.84 bitrate=N/A speed=18.7x    frame=34414 fps=448 q=-0.0 size=N/A time=00:23:55.35 bitrate=N/A speed=18.7x    frame=34641 fps=448 q=-0.0 size=N/A time=00:24:04.81 bitrate=N/A speed=18.7x    [Parsed_ssim_10 @ 000001b755f1ef00] SSIM Y:0.993778 (22.061010) U:0.993480 (21.857271) V:0.993737 (22.032096) All:0.993722 (22.021589)
[out#0/null @ 000001b755664500] video:14920KiB audio:271564KiB subtitle:0KiB other streams:0KiB global headers:0KiB muxing overhead: unknown
frame=34724 fps=448 q=-0.0 Lsize=N/A time=00:24:08.28 bitrate=N/A speed=18.7x    
